<svg xmlns="http://www.w3.org/2000/svg" fill="none" viewBox="0 0 252 144">
  <circle cx="63" cy="72" r="50" fill="#fff"/>
  <path fill="#2D5CCC" fill-rule="evenodd" d="M56.94 1.65c3.75-2.2 8.37-2.2 12.12 0l50.88 29.84A12.36 12.36 0 0 1 126 42.16v59.68c0 4.4-2.31 8.47-6.06 10.67l-50.88 29.84a11.96 11.96 0 0 1-12.12 0L6.06 112.51A12.36 12.36 0 0 1 0 101.84V42.16c0-4.4 2.31-8.47 6.06-10.67L56.94 1.65ZM69.4 42C79.12 42 87 49.9 87 59.68v18.86a5.88 5.88 0 0 1-5.87 5.89H55.32v-7.07h24.64V59.68c0-5.86-4.73-10.6-10.56-10.6H48.28V42H69.4ZM39 84.32C39 94.08 46.88 102 56.6 102h21.12v-7.07H56.6a10.58 10.58 0 0 1-10.56-10.6v-17.7h24.64v-7.07H44.87a5.88 5.88 0 0 0-5.87 5.9v18.85Z" clip-rule="evenodd"/>
  <path fill="#FBFCFF" fill-rule="evenodd" d="M192 86.5V93h-31.36v-5.15l16.9-15.61c1.9-1.78 3.18-3.32 3.83-4.62a8.64 8.64 0 0 0 1.03-3.96c0-1.93-.67-3.41-2-4.44-1.34-1.02-3.31-1.54-5.9-1.54-4.34 0-7.66 1.44-9.97 4.32L159 57.86a16.13 16.13 0 0 1 6.69-5.03c2.83-1.22 6-1.83 9.48-1.83 4.62 0 8.3 1.06 11.06 3.2 2.75 2.12 4.13 5.02 4.13 8.69 0 2.25-.49 4.36-1.46 6.33-.97 1.97-2.84 4.22-5.6 6.74L171.95 86.5H192ZM218.7 51c3.72 0 6.96.6 9.7 1.8a14.06 14.06 0 0 1 6.39 5.16 14.18 14.18 0 0 1 2.21 7.98c0 3.04-.74 5.7-2.21 7.98a14.06 14.06 0 0 1-6.4 5.16 24.08 24.08 0 0 1-9.7 1.8H209V93h-8V51h17.7Zm-.38 23.28c3.49 0 6.13-.72 7.93-2.16 1.8-1.44 2.7-3.5 2.7-6.18 0-2.68-.9-4.74-2.7-6.18-1.8-1.44-4.44-2.16-7.93-2.16H209v16.68h9.33ZM252 51h-7.5v42h7.5V51Z" clip-rule="evenodd"/>
</svg>
