<?xml version="1.0" encoding="UTF-8" standalone="no"?>
<svg
   fill="none"
   height="80.5"
   viewBox="0 0 80.5 80.5"
   width="80.5"
   version="1.1"
   id="svg835"
   sodipodi:docname="agEUR.svg"
   inkscape:version="1.1.2 (b8e25be8, 2022-02-05)"
   xmlns:inkscape="http://www.inkscape.org/namespaces/inkscape"
   xmlns:sodipodi="http://sodipodi.sourceforge.net/DTD/sodipodi-0.dtd"
   xmlns="http://www.w3.org/2000/svg"
   xmlns:svg="http://www.w3.org/2000/svg">
  <defs
     id="defs839" />
  <sodipodi:namedview
     id="namedview837"
     pagecolor="#ffffff"
     bordercolor="#666666"
     borderopacity="1.0"
     inkscape:pageshadow="2"
     inkscape:pageopacity="0.0"
     inkscape:pagecheckerboard="0"
     showgrid="false"
     fit-margin-top="0"
     fit-margin-left="0"
     fit-margin-right="0"
     fit-margin-bottom="0"
     inkscape:zoom="6.5"
     inkscape:cx="40.307692"
     inkscape:cy="40.307692"
     inkscape:window-width="1440"
     inkscape:window-height="872"
     inkscape:window-x="0"
     inkscape:window-y="0"
     inkscape:window-maximized="1"
     inkscape:current-layer="svg835" />
  <linearGradient
     id="a"
     gradientUnits="userSpaceOnUse"
     x1="50"
     x2="50"
     y1="10"
     y2="90"
     gradientTransform="translate(-9.75,-9.75)">
    <stop
       offset="0"
       stop-color="#99b998"
       id="stop824" />
    <stop
       offset="1"
       stop-color="#fdceaa"
       id="stop826" />
  </linearGradient>
  <path
     d="m 40.25,80.25 c 22.0914,0 40,-17.9086 40,-40 0,-22.0914 -17.9086,-40 -40,-40 -22.0914,0 -40,17.9086 -40,40 0,22.0914 17.9086,40 40,40 z"
     fill="url(#a)"
     stroke="#000000"
     stroke-width="0.5"
     id="path829"
     style="fill:url(#a)" />
  <path
     d="M 13.25,33.0777 40.25,6.25 67.25,33.0777 54.0013,46.2418 40.5096,32.8362 40.2672,32.5953 40.0241,32.8362 26.5241,46.25 Z"
     fill="#fff6f0"
     stroke="#000000"
     id="path831" />
  <path
     d="m 19.218,50.45 h 10.608 v 3.024 h -7.44 v 3.84 h 7.152 v 3.024 h -7.152 v 3.888 h 7.728 V 67.25 H 19.218 Z m 26.1193,0 v 10.992 c 0,1.92 -0.512,3.424 -1.536,4.512 -1.008,1.088 -2.512,1.632 -4.512,1.632 -2,0 -3.512,-0.544 -4.536,-1.632 -1.008,-1.088 -1.512,-2.592 -1.512,-4.512 V 50.45 h 3.168 v 10.992 c 0,0.992 0.232,1.768 0.696,2.328 0.464,0.56 1.192,0.84 2.184,0.84 0.992,0 1.72,-0.28 2.184,-0.84 0.464,-0.56 0.696,-1.336 0.696,-2.328 V 50.45 Z m 14.3353,16.8 h -3.168 v -5.04 c 0,-0.384 -0.104,-0.696 -0.312,-0.936 -0.192,-0.24 -0.52,-0.36 -0.984,-0.36 h -3.648 v 6.336 h -3.168 v -16.8 h 6.432 c 0.864,0 1.624,0.12 2.28,0.36 0.656,0.24 1.2,0.576 1.632,1.008 0.448,0.416 0.784,0.904 1.008,1.464 0.24,0.56 0.36,1.16 0.36,1.8 v 0.576 c 0,0.688 -0.184,1.336 -0.552,1.944 -0.368,0.592 -0.936,1.048 -1.704,1.368 v 0.432 c 0.56,0.064 1,0.28 1.32,0.648 0.336,0.368 0.504,0.832 0.504,1.392 z m -8.112,-9.36 h 3.024 c 0.768,0 1.352,-0.176 1.752,-0.528 0.4,-0.368 0.6,-0.88 0.6,-1.536 v -0.288 c 0,-0.56 -0.2,-1.04 -0.6,-1.44 -0.4,-0.416 -0.984,-0.624 -1.752,-0.624 h -3.024 z"
     fill="#2a363a"
     id="path833" />
</svg>
