<svg xmlns="http://www.w3.org/2000/svg" fill="none" viewBox="0 0 24 24">
  <path fill="#fff" d="M19.4 4.1H4.59v13.5H19.4V4.1Z"/>
  <path fill="#E84142" fill-rule="evenodd" d="M24 12a12 12 0 1 1-24 0 12 12 0 0 1 24 0ZM8.6 16.78H6.27c-.49 0-.73 0-.88-.1a.6.6 0 0 1-.27-.46c0-.18.12-.39.36-.81l5.75-10.14c.24-.43.37-.64.52-.72a.6.6 0 0 1 .54 0c.16.08.28.3.52.72L14 7.34c.27.47.4.7.46.95.06.27.06.55 0 .82-.06.24-.2.48-.46.95l-3.02 5.34v.01c-.28.47-.41.7-.6.88-.2.2-.45.34-.71.42-.25.07-.52.07-1.07.07Zm5.88 0h3.34c.49 0 .74 0 .89-.1.15-.1.25-.28.26-.47.01-.17-.1-.37-.34-.77l-.02-.04-1.67-2.86-.02-.03c-.24-.4-.36-.6-.5-.68a.59.59 0 0 0-.54 0c-.16.08-.28.3-.52.71l-1.67 2.86v.01c-.25.42-.37.63-.36.8.01.2.1.37.27.47.14.1.39.1.88.1Z" clip-rule="evenodd"/>
</svg>
