<svg xmlns="http://www.w3.org/2000/svg" fill="none" viewBox="0 0 24 24">
  <path fill="#F0B90B" fill-rule="evenodd" d="M12 0a12 12 0 1 1 0 24 12 12 0 0 1 0-24Z" clip-rule="evenodd"/>
  <path fill="#fff" d="M6.6 12v3.17l2.7 1.59v1.86L5.03 16.1v-5.04L6.6 12Zm0-3.17v1.85l-1.58-.93V7.9l1.58-.93 1.57.93-1.57.93Zm3.83-.93L12 6.97l1.57.93-1.57.93-1.57-.93Z"/>
  <path fill="#fff" d="M7.73 14.52v-1.86l1.57.93v1.85l-1.57-.92Zm2.7 2.9 1.57.93 1.57-.93v1.85L12 20.2l-1.57-.93v-1.84Zm5.4-9.52 1.57-.93 1.57.93v1.85l-1.57.93V8.83l-1.57-.93Zm1.57 7.27V12l1.57-.93v5.04l-4.27 2.5v-1.85l2.7-1.59Z"/>
  <path fill="#fff" d="m16.27 14.52-1.57.92v-1.85l1.57-.93v1.86Z"/>
  <path fill="#fff" d="M16.27 9.48v1.86l-2.7 1.59v3.18l-1.57.92-1.57-.92v-3.18l-2.7-1.59V9.48l1.58-.92L12 10.15l2.7-1.6 1.58.93h-.01ZM7.73 6.31 12 3.8l4.27 2.51-1.57.93-2.7-1.6-2.7 1.6-1.57-.93Z"/>
</svg>
