<svg xmlns="http://www.w3.org/2000/svg" fill="none" viewBox="0 0 24 24">
  <path fill="#F7931A" d="M23.64 14.9A12 12 0 1 1 .36 9.1a12 12 0 0 1 23.28 5.8Z"/>
  <path fill="#fff" d="M17.29 10.29c.24-1.6-.98-2.46-2.64-3.03l.54-2.16-1.32-.33-.52 2.1-1.06-.24.53-2.12-1.31-.33-.54 2.16a43.5 43.5 0 0 1-.84-.2L8.3 5.69l-.35 1.4s.98.23.96.24c.53.13.63.49.61.77l-.61 2.46.13.04-.14-.03-.86 3.45c-.06.16-.23.4-.6.31.01.02-.96-.23-.96-.23l-.65 1.5 1.71.43.94.24-.54 2.19 1.31.33.54-2.17c.36.1.7.2 1.05.28l-.54 2.15 1.32.33.54-2.19c2.25.43 3.94.26 4.65-1.77.57-1.64-.03-2.58-1.21-3.2.86-.2 1.5-.76 1.68-1.93Zm-3 4.22c-.42 1.63-3.17.75-4.06.53l.72-2.9c.9.22 3.76.66 3.33 2.37Zm.4-4.24c-.37 1.48-2.66.73-3.4.54l.65-2.63c.74.19 3.14.54 2.75 2.09Z"/>
</svg>
