<svg xmlns="http://www.w3.org/2000/svg" fill="none" viewBox="0 0 24 24">
  <circle cx="12" cy="12" r="12" fill="#8247E5"/>
  <path fill="#fff" d="M16.08 9.25a1.04 1.04 0 0 0-1 0l-2.33 1.37-1.58.88-2.3 1.37c-.29.17-.66.17-1 0L6.08 11.8c-.29-.17-.5-.5-.5-.87v-2.1c0-.33.17-.66.5-.87l1.8-1.04c.29-.17.66-.17 1 0L10.66 8c.29.17.5.5.5.87v1.38l1.58-.92V7.92c0-.34-.17-.67-.5-.88L8.92 5.08a1.1 1.1 0 0 0-1 0l-3.42 2c-.33.17-.5.5-.5.84v3.91c0 .34.17.67.5.88l3.38 1.96c.29.16.66.16 1 0l2.29-1.34 1.58-.91 2.3-1.34a1.1 1.1 0 0 1 1 0l1.78 1.04c.3.17.5.5.5.88v2.08c0 .34-.16.67-.5.88L16.08 17c-.29.17-.66.17-1 0l-1.79-1.04c-.29-.17-.5-.5-.5-.88v-1.33l-1.58.92v1.37c0 .33.16.67.5.88l3.37 1.95c.3.17.67.17 1 0l3.38-1.95c.29-.17.5-.5.5-.88v-3.96c0-.33-.17-.66-.5-.87l-3.38-1.96Z"/>
</svg>
