<svg xmlns="http://www.w3.org/2000/svg" fill="none" viewBox="0 0 24 24">
  <circle cx="12" cy="12" r="12" fill="#50AF95"/>
  <path fill="#fff" fill-rule="evenodd" d="M13.5 12.99c-.09 0-.5.03-1.43.03-.73 0-1.25-.02-1.44-.03-2.84-.13-4.96-.62-4.96-1.21 0-.6 2.12-1.09 4.96-1.22v1.94a21.47 21.47 0 0 0 2.86 0v-1.94c2.83.13 4.95.63 4.95 1.22s-2.11 1.08-4.95 1.2Zm0-2.62V8.64h3.95V6H6.68v2.64h3.95v1.72c-3.21.15-5.63.79-5.63 1.55 0 .77 2.42 1.4 5.63 1.55V19h2.86v-5.54c3.21-.15 5.62-.79 5.62-1.55s-2.4-1.4-5.62-1.55Z" clip-rule="evenodd"/>
</svg>
