<svg width="96" height="96" viewBox="0 0 96 96" fill="none" xmlns="http://www.w3.org/2000/svg">
<circle cx="48" cy="48" r="27" fill="white"/>
<path fill-rule="evenodd" clip-rule="evenodd" d="M43.9585 1.10016C46.4594 -0.366721 49.5406 -0.366721 52.0415 1.10016L85.9586 20.9943C88.4594 22.4612 90 25.1721 90 28.1059V67.8941C90 70.8279 88.4594 73.5388 85.9586 75.0057L52.0415 94.8998C49.5406 96.3667 46.4594 96.3667 43.9585 94.8998L10.0415 75.0057C7.54059 73.5388 6 70.8279 6 67.8941V28.1059C6 25.1721 7.54059 22.4612 10.0415 20.9943L43.9585 1.10016ZM52.2657 28.0003C58.7458 28.0003 63.999 33.277 63.999 39.786V52.3575C63.999 54.5272 62.248 56.286 60.0879 56.286H42.879V51.5718H59.3057V39.786C59.3057 35.8806 56.1538 32.7146 52.2657 32.7146H38.1856V28.0003H52.2657ZM31.999 56.2149C31.999 62.724 37.2522 68.0007 43.7324 68.0007H57.8124V63.2864L43.7324 63.2864C39.8443 63.2864 36.6924 60.1204 36.6924 56.2149V44.4292L53.1191 44.4292V39.7149H35.9101C33.7501 39.7149 31.999 41.4738 31.999 43.6435L31.999 56.2149Z" fill="#2D5CCC"/>
</svg>
